<mxfile host="drawio-plugin" modified="2023-08-13T17:49:19.982Z" agent="5.0 (X11; Linux x86_64) AppleWebKit/537.36 (KHTML, like Gecko) Chrome/104.0.5112.102 Safari/537.36" etag="khvOoJQTfpeKVlFoo0WR" version="20.5.3" type="embed"><diagram id="6a731a19-8d31-9384-78a2-239565b7b9f0" name="Page-1"><mxGraphModel dx="824" dy="563" grid="1" gridSize="10" guides="1" tooltips="1" connect="1" arrows="1" fold="1" page="1" pageScale="1" pageWidth="827" pageHeight="1169" background="none" math="0" shadow="0"><root><mxCell id="0"/><mxCell id="1" parent="0"/><mxCell id="eoMGSKBOUgeIE6Lk5qr4-2287" value="Edge 2" style="rounded=1;whiteSpace=wrap;html=1;fillColor=#dae8fc;strokeColor=#6c8ebf;fontSize=26;verticalAlign=top;" parent="1" vertex="1"><mxGeometry x="1541" y="180" width="741" height="770" as="geometry"/></mxCell><mxCell id="VIIdwyrcARPIxDZz3K_W-2183" style="edgeStyle=orthogonalEdgeStyle;rounded=0;orthogonalLoop=1;jettySize=auto;html=1;exitX=0.5;exitY=0;exitDx=0;exitDy=0;exitPerimeter=0;entryX=0.5;entryY=1;entryDx=0;entryDy=0;endArrow=none;endFill=0;strokeWidth=4;strokeColor=#23445d;" parent="1" edge="1"><mxGeometry relative="1" as="geometry"><mxPoint x="1910.73" y="510" as="sourcePoint"/><mxPoint x="1910.73" y="320" as="targetPoint"/></mxGeometry></mxCell><mxCell id="eoMGSKBOUgeIE6Lk5qr4-2299" style="edgeStyle=orthogonalEdgeStyle;rounded=1;html=1;strokeColor=#23445D;endArrow=none;endFill=0;strokeWidth=4;exitX=0.624;exitY=-0.006;exitDx=0;exitDy=0;exitPerimeter=0;" parent="1" source="eoMGSKBOUgeIE6Lk5qr4-2272" target="VIIdwyrcARPIxDZz3K_W-2173" edge="1"><mxGeometry relative="1" as="geometry"><mxPoint x="891" y="839" as="sourcePoint"/><mxPoint x="802" y="839" as="targetPoint"/><Array as="points"><mxPoint x="2004" y="539"/></Array></mxGeometry></mxCell><mxCell id="eoMGSKBOUgeIE6Lk5qr4-2298" style="edgeStyle=orthogonalEdgeStyle;rounded=1;html=1;strokeColor=#23445D;endArrow=none;endFill=0;strokeWidth=4;exitX=0.614;exitY=0.007;exitDx=0;exitDy=0;exitPerimeter=0;" parent="1" source="eoMGSKBOUgeIE6Lk5qr4-2270" target="VIIdwyrcARPIxDZz3K_W-2173" edge="1"><mxGeometry relative="1" as="geometry"><mxPoint x="1700" y="1022" as="sourcePoint"/><mxPoint x="1262" y="1021" as="targetPoint"/><Array as="points"><mxPoint x="1813" y="539"/></Array></mxGeometry></mxCell><mxCell id="eoMGSKBOUgeIE6Lk5qr4-2297" style="edgeStyle=orthogonalEdgeStyle;rounded=1;html=1;strokeColor=#23445D;endArrow=none;endFill=0;strokeWidth=4;exitX=0.638;exitY=-0.02;exitDx=0;exitDy=0;exitPerimeter=0;entryX=0;entryY=0.5;entryDx=0;entryDy=0;entryPerimeter=0;" parent="1" target="VIIdwyrcARPIxDZz3K_W-2173" edge="1"><mxGeometry relative="1" as="geometry"><mxPoint x="1625.438" y="723" as="sourcePoint"/><mxPoint x="1262" y="1021" as="targetPoint"/><Array as="points"><mxPoint x="1625" y="540"/></Array></mxGeometry></mxCell><mxCell id="2179" value="&lt;font style=&quot;font-size: 26px;&quot;&gt;DSMF&lt;/font&gt;" style="rounded=0;whiteSpace=wrap;html=1;verticalAlign=top;" parent="1" vertex="1"><mxGeometry x="1846.5" y="420" width="130" height="190" as="geometry"/></mxCell><mxCell id="eoMGSKBOUgeIE6Lk5qr4-2288" value="Black network" style="rounded=1;whiteSpace=wrap;html=1;fillColor=#dae8fc;strokeColor=#6c8ebf;fontSize=26;verticalAlign=top;" parent="1" vertex="1"><mxGeometry x="961" y="180" width="560" height="770" as="geometry"/></mxCell><mxCell id="eoMGSKBOUgeIE6Lk5qr4-2295" style="edgeStyle=orthogonalEdgeStyle;rounded=1;html=1;strokeColor=#23445D;endArrow=none;endFill=0;strokeWidth=4;exitX=1;exitY=0.5;exitDx=0;exitDy=0;exitPerimeter=0;entryX=0.645;entryY=0.009;entryDx=0;entryDy=0;entryPerimeter=0;" parent="1" source="VIIdwyrcARPIxDZz3K_W-2172" target="eoMGSKBOUgeIE6Lk5qr4-2266" edge="1"><mxGeometry relative="1" as="geometry"><mxPoint x="1262" y="1021" as="sourcePoint"/><mxPoint x="762" y="799" as="targetPoint"/></mxGeometry></mxCell><mxCell id="eoMGSKBOUgeIE6Lk5qr4-2294" style="edgeStyle=orthogonalEdgeStyle;rounded=1;html=1;strokeColor=#23445D;endArrow=none;endFill=0;strokeWidth=4;entryX=0;entryY=0.5;entryDx=0;entryDy=0;entryPerimeter=0;exitX=0.684;exitY=0.019;exitDx=0;exitDy=0;exitPerimeter=0;" parent="1" source="eoMGSKBOUgeIE6Lk5qr4-2262" target="VIIdwyrcARPIxDZz3K_W-2172" edge="1"><mxGeometry relative="1" as="geometry"><mxPoint x="1061" y="720" as="sourcePoint"/><mxPoint x="752" y="789" as="targetPoint"/><Array as="points"><mxPoint x="1060" y="720"/><mxPoint x="1061" y="720"/><mxPoint x="1061" y="539"/></Array></mxGeometry></mxCell><mxCell id="VIIdwyrcARPIxDZz3K_W-2182" style="edgeStyle=orthogonalEdgeStyle;rounded=0;orthogonalLoop=1;jettySize=auto;html=1;exitX=0.5;exitY=0;exitDx=0;exitDy=0;exitPerimeter=0;entryX=0.5;entryY=1;entryDx=0;entryDy=0;endArrow=none;endFill=0;strokeWidth=4;strokeColor=#23445d;" parent="1" edge="1"><mxGeometry relative="1" as="geometry"><mxPoint x="1240.23" y="510" as="sourcePoint"/><mxPoint x="1240.23" y="320" as="targetPoint"/></mxGeometry></mxCell><mxCell id="2178" value="&lt;font style=&quot;font-size: 26px;&quot;&gt;DTMF&lt;/font&gt;" style="rounded=0;whiteSpace=wrap;html=1;verticalAlign=top;" parent="1" vertex="1"><mxGeometry x="1176" y="420" width="130" height="190" as="geometry"/></mxCell><mxCell id="eoMGSKBOUgeIE6Lk5qr4-2286" value="&lt;font style=&quot;font-size: 26px;&quot;&gt;Edge 1&lt;br&gt;&lt;/font&gt;" style="rounded=1;whiteSpace=wrap;html=1;fillColor=#dae8fc;strokeColor=#6c8ebf;verticalAlign=top;" parent="1" vertex="1"><mxGeometry x="180" y="180" width="761" height="770" as="geometry"/></mxCell><mxCell id="eoMGSKBOUgeIE6Lk5qr4-2292" style="edgeStyle=orthogonalEdgeStyle;rounded=1;html=1;strokeColor=#23445D;endArrow=none;endFill=0;strokeWidth=4;exitX=0.592;exitY=0.056;exitDx=0;exitDy=0;exitPerimeter=0;entryX=1;entryY=0.5;entryDx=0;entryDy=0;entryPerimeter=0;" parent="1" source="eoMGSKBOUgeIE6Lk5qr4-2258" target="VIIdwyrcARPIxDZz3K_W-2174" edge="1"><mxGeometry relative="1" as="geometry"><mxPoint x="821" y="769" as="sourcePoint"/><mxPoint x="732" y="769" as="targetPoint"/><Array as="points"><mxPoint x="671" y="539"/></Array></mxGeometry></mxCell><mxCell id="eoMGSKBOUgeIE6Lk5qr4-2293" style="edgeStyle=orthogonalEdgeStyle;rounded=1;html=1;strokeColor=#23445D;endArrow=none;endFill=0;strokeWidth=4;entryX=0.606;entryY=0.075;entryDx=0;entryDy=0;entryPerimeter=0;exitX=1;exitY=0.5;exitDx=0;exitDy=0;exitPerimeter=0;" parent="1" source="VIIdwyrcARPIxDZz3K_W-2174" edge="1"><mxGeometry relative="1" as="geometry"><mxPoint x="831" y="779" as="sourcePoint"/><mxPoint x="862.2060000000001" y="727.75" as="targetPoint"/></mxGeometry></mxCell><mxCell id="eoMGSKBOUgeIE6Lk5qr4-2291" style="edgeStyle=orthogonalEdgeStyle;rounded=1;html=1;strokeColor=#23445D;endArrow=none;endFill=0;strokeWidth=4;exitX=0;exitY=0.5;exitDx=0;exitDy=0;exitPerimeter=0;entryX=0.582;entryY=0.05;entryDx=0;entryDy=0;entryPerimeter=0;" parent="1" source="VIIdwyrcARPIxDZz3K_W-2174" target="2114" edge="1"><mxGeometry relative="1" as="geometry"><mxPoint x="760" y="982" as="sourcePoint"/><mxPoint x="671" y="982" as="targetPoint"/></mxGeometry></mxCell><mxCell id="VIIdwyrcARPIxDZz3K_W-2181" style="edgeStyle=orthogonalEdgeStyle;rounded=0;orthogonalLoop=1;jettySize=auto;html=1;exitX=0.5;exitY=0;exitDx=0;exitDy=0;exitPerimeter=0;entryX=0.5;entryY=1;entryDx=0;entryDy=0;endArrow=none;endFill=0;strokeWidth=4;strokeColor=#23445d;" parent="1" source="VIIdwyrcARPIxDZz3K_W-2174" target="eoMGSKBOUgeIE6Lk5qr4-2326" edge="1"><mxGeometry relative="1" as="geometry"/></mxCell><mxCell id="2177" value="&lt;font style=&quot;font-size: 26px;&quot;&gt;DSMF&lt;/font&gt;" style="rounded=0;whiteSpace=wrap;html=1;verticalAlign=top;" parent="1" vertex="1"><mxGeometry x="505.5" y="420" width="130" height="190" as="geometry"/></mxCell><mxCell id="2172" style="edgeStyle=none;rounded=1;html=1;strokeColor=#B20000;endArrow=none;endFill=0;strokeWidth=4" parent="1" target="2114" edge="1"><mxGeometry relative="1" as="geometry"><mxPoint x="611" y="749" as="sourcePoint"/></mxGeometry></mxCell><mxCell id="eoMGSKBOUgeIE6Lk5qr4-2259" style="edgeStyle=none;rounded=1;html=1;strokeColor=#23445D;endArrow=none;endFill=0;strokeWidth=4;exitX=0.16;exitY=0.5;exitDx=0;exitDy=0;exitPerimeter=0;" parent="1" source="2173" target="eoMGSKBOUgeIE6Lk5qr4-2258" edge="1"><mxGeometry relative="1" as="geometry"><mxPoint x="801" y="749" as="sourcePoint"/></mxGeometry></mxCell><mxCell id="eoMGSKBOUgeIE6Lk5qr4-2261" style="edgeStyle=none;rounded=1;html=1;strokeColor=#23445D;endArrow=none;endFill=0;strokeWidth=4;entryX=0.83;entryY=0.5;entryDx=0;entryDy=0;entryPerimeter=0;shape=link;exitX=0.103;exitY=0.497;exitDx=0;exitDy=0;exitPerimeter=0;" parent="1" source="eoMGSKBOUgeIE6Lk5qr4-2262" target="2173" edge="1"><mxGeometry relative="1" as="geometry"><mxPoint x="991" y="749" as="sourcePoint"/><mxPoint x="902" y="749" as="targetPoint"/></mxGeometry></mxCell><mxCell id="eoMGSKBOUgeIE6Lk5qr4-2265" style="edgeStyle=none;rounded=1;html=1;strokeColor=#B20000;endArrow=none;endFill=0;strokeWidth=4;shape=link;exitX=0.16;exitY=0.497;exitDx=0;exitDy=0;exitPerimeter=0;entryX=0.792;entryY=0.5;entryDx=0;entryDy=0;entryPerimeter=0;" parent="1" source="eoMGSKBOUgeIE6Lk5qr4-2266" target="eoMGSKBOUgeIE6Lk5qr4-2262" edge="1"><mxGeometry relative="1" as="geometry"><mxPoint x="1361" y="749" as="sourcePoint"/><mxPoint x="1272" y="749" as="targetPoint"/></mxGeometry></mxCell><mxCell id="eoMGSKBOUgeIE6Lk5qr4-2267" style="edgeStyle=none;rounded=1;html=1;strokeColor=#23445D;endArrow=none;endFill=0;strokeWidth=4;exitX=0.16;exitY=0.5;exitDx=0;exitDy=0;exitPerimeter=0;shape=link;" parent="1" source="2176" edge="1"><mxGeometry relative="1" as="geometry"><mxPoint x="1581.48" y="749" as="sourcePoint"/><mxPoint x="1461" y="749" as="targetPoint"/></mxGeometry></mxCell><mxCell id="eoMGSKBOUgeIE6Lk5qr4-2269" style="edgeStyle=none;rounded=1;html=1;strokeColor=#23445D;endArrow=none;endFill=0;strokeWidth=4;entryX=0.83;entryY=0.5;entryDx=0;entryDy=0;entryPerimeter=0;" parent="1" target="2176" edge="1"><mxGeometry relative="1" as="geometry"><mxPoint x="1751" y="749" as="sourcePoint"/><mxPoint x="1662" y="749" as="targetPoint"/></mxGeometry></mxCell><mxCell id="eoMGSKBOUgeIE6Lk5qr4-2271" style="edgeStyle=none;rounded=1;html=1;strokeColor=#B20000;endArrow=none;endFill=0;strokeWidth=4" parent="1" target="eoMGSKBOUgeIE6Lk5qr4-2270" edge="1"><mxGeometry relative="1" as="geometry"><mxPoint x="1941" y="749" as="sourcePoint"/></mxGeometry></mxCell><mxCell id="eoMGSKBOUgeIE6Lk5qr4-2277" style="edgeStyle=none;rounded=1;html=1;strokeColor=#23445D;endArrow=none;endFill=0;strokeWidth=4;exitX=0;exitY=0.5;exitDx=0;exitDy=0;exitPerimeter=0;entryX=0.83;entryY=0.5;entryDx=0;entryDy=0;entryPerimeter=0;" parent="1" source="2114" target="eoMGSKBOUgeIE6Lk5qr4-2275" edge="1"><mxGeometry relative="1" as="geometry"><mxPoint x="421" y="748.5" as="sourcePoint"/><mxPoint x="330" y="760" as="targetPoint"/></mxGeometry></mxCell><mxCell id="eoMGSKBOUgeIE6Lk5qr4-2279" style="edgeStyle=none;rounded=1;html=1;strokeColor=#B20000;endArrow=none;endFill=0;strokeWidth=4;entryX=0.333;entryY=0.586;entryDx=0;entryDy=0;entryPerimeter=0;" parent="1" source="2114" target="eoMGSKBOUgeIE6Lk5qr4-2276" edge="1"><mxGeometry relative="1" as="geometry"><mxPoint x="641" y="779" as="sourcePoint"/><mxPoint x="552" y="779" as="targetPoint"/></mxGeometry></mxCell><mxCell id="eoMGSKBOUgeIE6Lk5qr4-2283" style="edgeStyle=none;rounded=1;html=1;strokeColor=#23445D;endArrow=none;endFill=0;strokeWidth=4;exitX=0.98;exitY=0.5;exitDx=0;exitDy=0;exitPerimeter=0;entryX=0.16;entryY=0.5;entryDx=0;entryDy=0;entryPerimeter=0;" parent="1" source="eoMGSKBOUgeIE6Lk5qr4-2272" target="eoMGSKBOUgeIE6Lk5qr4-2281" edge="1"><mxGeometry relative="1" as="geometry"><mxPoint x="2361" y="749" as="sourcePoint"/><mxPoint x="2272" y="748.5" as="targetPoint"/></mxGeometry></mxCell><mxCell id="eoMGSKBOUgeIE6Lk5qr4-2285" style="edgeStyle=none;rounded=1;html=1;strokeColor=#B20000;endArrow=none;endFill=0;strokeWidth=4;exitX=0.797;exitY=0.88;exitDx=0;exitDy=0;exitPerimeter=0;entryX=0.647;entryY=0.607;entryDx=0;entryDy=0;entryPerimeter=0;" parent="1" source="eoMGSKBOUgeIE6Lk5qr4-2272" target="eoMGSKBOUgeIE6Lk5qr4-2282" edge="1"><mxGeometry relative="1" as="geometry"><mxPoint x="2040" y="780" as="sourcePoint"/><mxPoint x="2492" y="779" as="targetPoint"/></mxGeometry></mxCell><mxCell id="eoMGSKBOUgeIE6Lk5qr4-2326" value="&lt;font style=&quot;font-size: 26px;&quot;&gt;ESMF&lt;/font&gt;" style="rounded=0;whiteSpace=wrap;html=1;" parent="1" vertex="1"><mxGeometry x="505.5" y="260" width="130" height="60" as="geometry"/></mxCell><mxCell id="eoMGSKBOUgeIE6Lk5qr4-2328" style="edgeStyle=orthogonalEdgeStyle;rounded=1;html=1;strokeColor=#23445D;endArrow=none;endFill=0;strokeWidth=4;entryX=0.5;entryY=0;entryDx=0;entryDy=0;entryPerimeter=0;" parent="1" source="eoMGSKBOUgeIE6Lk5qr4-2326" target="eoMGSKBOUgeIE6Lk5qr4-2275" edge="1"><mxGeometry relative="1" as="geometry"><mxPoint x="399" y="655.5" as="sourcePoint"/><mxPoint x="260" y="594" as="targetPoint"/></mxGeometry></mxCell><mxCell id="VIIdwyrcARPIxDZz3K_W-2173" value="c3" style="shape=mxgraph.cisco.controllers_and_modules.system_controller;sketch=0;html=1;pointerEvents=1;dashed=0;fillColor=#036897;strokeColor=#ffffff;strokeWidth=2;verticalLabelPosition=bottom;verticalAlign=top;align=center;outlineConnect=0;fontSize=26;" parent="1" vertex="1"><mxGeometry x="1881" y="510" width="61" height="58" as="geometry"/></mxCell><mxCell id="VIIdwyrcARPIxDZz3K_W-2174" value="c1" style="shape=mxgraph.cisco.controllers_and_modules.system_controller;sketch=0;html=1;pointerEvents=1;dashed=0;fillColor=#036897;strokeColor=#ffffff;strokeWidth=2;verticalLabelPosition=bottom;verticalAlign=top;align=center;outlineConnect=0;fontSize=26;" parent="1" vertex="1"><mxGeometry x="540" y="510" width="61" height="58" as="geometry"/></mxCell><mxCell id="VIIdwyrcARPIxDZz3K_W-2176" value="&lt;font style=&quot;font-size: 26px;&quot;&gt;ESMF&lt;/font&gt;" style="rounded=0;whiteSpace=wrap;html=1;" parent="1" vertex="1"><mxGeometry x="1846.5" y="260" width="130" height="60" as="geometry"/></mxCell><mxCell id="VIIdwyrcARPIxDZz3K_W-2177" value="&lt;font style=&quot;font-size: 26px;&quot;&gt;CTMF&lt;/font&gt;" style="rounded=0;whiteSpace=wrap;html=1;" parent="1" vertex="1"><mxGeometry x="1176" y="260" width="130" height="60" as="geometry"/></mxCell><mxCell id="VIIdwyrcARPIxDZz3K_W-2178" value="Two phase commit protocol" style="edgeStyle=orthogonalEdgeStyle;rounded=1;html=1;strokeColor=#23445D;endArrow=none;endFill=0;strokeWidth=4;exitX=1;exitY=0.5;exitDx=0;exitDy=0;entryX=0;entryY=0.5;entryDx=0;entryDy=0;fontSize=16;" parent="1" source="eoMGSKBOUgeIE6Lk5qr4-2326" target="VIIdwyrcARPIxDZz3K_W-2177" edge="1"><mxGeometry relative="1" as="geometry"><mxPoint x="500" y="300" as="sourcePoint"/><mxPoint x="270" y="604" as="targetPoint"/></mxGeometry></mxCell><mxCell id="VIIdwyrcARPIxDZz3K_W-2179" value="Two phase commit protocol" style="edgeStyle=orthogonalEdgeStyle;rounded=1;html=1;strokeColor=#23445D;endArrow=none;endFill=0;strokeWidth=4;exitX=1;exitY=0.5;exitDx=0;exitDy=0;fontSize=16;" parent="1" target="VIIdwyrcARPIxDZz3K_W-2176" edge="1"><mxGeometry relative="1" as="geometry"><mxPoint x="1306" y="289.17" as="sourcePoint"/><mxPoint x="1781" y="290" as="targetPoint"/></mxGeometry></mxCell><mxCell id="VIIdwyrcARPIxDZz3K_W-2172" value="c2" style="shape=mxgraph.cisco.controllers_and_modules.system_controller;sketch=0;html=1;pointerEvents=1;dashed=0;fillColor=#036897;strokeColor=#ffffff;strokeWidth=2;verticalLabelPosition=bottom;verticalAlign=top;align=center;outlineConnect=0;fontSize=26;" parent="1" vertex="1"><mxGeometry x="1210.5" y="510" width="61" height="58" as="geometry"/></mxCell><mxCell id="2173" value="vpn1" style="shape=mxgraph.cisco.computers_and_peripherals.pc;sketch=0;html=1;pointerEvents=1;dashed=0;fillColor=#036897;strokeColor=#ffffff;strokeWidth=2;verticalLabelPosition=bottom;verticalAlign=top;align=center;outlineConnect=0;fontColor=#000000;fontSize=26;" parent="1" vertex="1"><mxGeometry x="820" y="714" width="78" height="70" as="geometry"/></mxCell><mxCell id="2176" value="vpn2" style="shape=mxgraph.cisco.computers_and_peripherals.pc;sketch=0;html=1;pointerEvents=1;dashed=0;fillColor=#036897;strokeColor=#ffffff;strokeWidth=2;verticalLabelPosition=bottom;verticalAlign=top;align=center;outlineConnect=0;fontColor=#000000;fontSize=26;" parent="1" vertex="1"><mxGeometry x="1580" y="714" width="78" height="70" as="geometry"/></mxCell><mxCell id="2189" style="edgeStyle=none;rounded=1;html=1;strokeColor=#B20000;endArrow=none;endFill=0;strokeWidth=4;entryX=0;entryY=1;entryDx=0;entryDy=0;fillColor=#e51400;exitX=0.59;exitY=0.014;exitDx=0;exitDy=0;exitPerimeter=0;" parent="1" source="2188" target="eoMGSKBOUgeIE6Lk5qr4-2326" edge="1"><mxGeometry relative="1" as="geometry"><mxPoint x="581.6041666666665" y="844" as="sourcePoint"/><mxPoint x="621" y="783" as="targetPoint"/></mxGeometry></mxCell><mxCell id="2188" value="a4" style="shape=mxgraph.cisco.computers_and_peripherals.pc;sketch=0;html=1;pointerEvents=1;dashed=0;fillColor=#B20000;strokeColor=#ffffff;strokeWidth=2;verticalLabelPosition=bottom;verticalAlign=top;align=center;outlineConnect=0;fontColor=#000000;fontSize=26;" parent="1" vertex="1"><mxGeometry x="375" y="350" width="78" height="70" as="geometry"/></mxCell><mxCell id="2190" style="edgeStyle=none;rounded=1;html=1;strokeColor=#B20000;endArrow=none;endFill=0;strokeWidth=4;fillColor=#e51400;entryX=1;entryY=0.25;entryDx=0;entryDy=0;exitX=0.16;exitY=0.5;exitDx=0;exitDy=0;exitPerimeter=0;" parent="1" source="2187" target="2177" edge="1"><mxGeometry relative="1" as="geometry"><mxPoint x="591.6041666666665" y="854" as="sourcePoint"/><mxPoint x="631" y="793" as="targetPoint"/></mxGeometry></mxCell><mxCell id="2187" value="a3" style="shape=mxgraph.cisco.computers_and_peripherals.pc;sketch=0;html=1;pointerEvents=1;dashed=0;fillColor=#B20000;strokeColor=#ffffff;strokeWidth=2;verticalLabelPosition=bottom;verticalAlign=top;align=center;outlineConnect=0;fontColor=#000000;fontSize=26;" parent="1" vertex="1"><mxGeometry x="770" y="432" width="78" height="70" as="geometry"/></mxCell><mxCell id="2192" style="edgeStyle=none;rounded=1;html=1;strokeColor=#B20000;endArrow=none;endFill=0;strokeWidth=4;fillColor=#e51400;entryX=0.5;entryY=0;entryDx=0;entryDy=0;entryPerimeter=0;" parent="1" edge="1"><mxGeometry relative="1" as="geometry"><mxPoint x="1240" y="751" as="sourcePoint"/><mxPoint x="1240" y="835" as="targetPoint"/></mxGeometry></mxCell><mxCell id="2191" value="a2" style="shape=mxgraph.cisco.computers_and_peripherals.pc;sketch=0;html=1;pointerEvents=1;dashed=0;fillColor=#B20000;strokeColor=#ffffff;strokeWidth=2;verticalLabelPosition=bottom;verticalAlign=top;align=center;outlineConnect=0;fontColor=#000000;fontSize=26;" parent="1" vertex="1"><mxGeometry x="1202" y="834" width="78" height="70" as="geometry"/></mxCell><mxCell id="2114" value="&lt;font color=&quot;#000000&quot;&gt;s1&lt;/font&gt;" style="shape=mxgraph.cisco.switches.workgroup_switch;html=1;dashed=0;fillColor=#10739E;strokeColor=#ffffff;strokeWidth=2;verticalLabelPosition=bottom;verticalAlign=top;fontFamily=Helvetica;fontSize=26;fontColor=#FFB366" parent="1" vertex="1"><mxGeometry x="421" y="724" width="101" height="50" as="geometry"/></mxCell><mxCell id="eoMGSKBOUgeIE6Lk5qr4-2272" value="s6" style="shape=mxgraph.cisco.switches.workgroup_switch;html=1;dashed=0;fillColor=#10739E;strokeColor=#ffffff;strokeWidth=2;verticalLabelPosition=bottom;verticalAlign=top;fontFamily=Helvetica;fontSize=26;fontColor=#000000;" parent="1" vertex="1"><mxGeometry x="1941" y="724" width="101" height="50" as="geometry"/></mxCell><mxCell id="2193" value="" style="endArrow=none;html=1;strokeWidth=4;rounded=1;strokeColor=#b20000;dashed=1;dashPattern=1 1;" edge="1" parent="1"><mxGeometry width="50" height="50" relative="1" as="geometry"><mxPoint x="1000" y="772" as="sourcePoint"/><mxPoint x="680" y="772" as="targetPoint"/><Array as="points"><mxPoint x="1000" y="842"/><mxPoint x="680" y="842"/></Array></mxGeometry></mxCell><mxCell id="2194" value="" style="endArrow=none;html=1;strokeWidth=4;rounded=1;strokeColor=#b20000;dashed=1;dashPattern=1 1;" edge="1" parent="1"><mxGeometry width="50" height="50" relative="1" as="geometry"><mxPoint x="1760" y="774" as="sourcePoint"/><mxPoint x="1440" y="774" as="targetPoint"/><Array as="points"><mxPoint x="1760" y="844"/><mxPoint x="1440" y="844"/></Array></mxGeometry></mxCell><mxCell id="eoMGSKBOUgeIE6Lk5qr4-2262" value="s3" style="shape=mxgraph.cisco.switches.workgroup_switch;html=1;dashed=0;fillColor=#10739E;strokeColor=#ffffff;strokeWidth=2;verticalLabelPosition=bottom;verticalAlign=top;fontFamily=Helvetica;fontSize=26;fontColor=#000000;" parent="1" vertex="1"><mxGeometry x="991" y="724" width="101" height="50" as="geometry"/></mxCell><mxCell id="eoMGSKBOUgeIE6Lk5qr4-2266" value="s4" style="shape=mxgraph.cisco.switches.workgroup_switch;html=1;dashed=0;fillColor=#10739E;strokeColor=#ffffff;strokeWidth=2;verticalLabelPosition=bottom;verticalAlign=top;fontFamily=Helvetica;fontSize=26;fontColor=#000000;" parent="1" vertex="1"><mxGeometry x="1371" y="724" width="101" height="50" as="geometry"/></mxCell><mxCell id="eoMGSKBOUgeIE6Lk5qr4-2270" value="s5" style="shape=mxgraph.cisco.switches.workgroup_switch;html=1;dashed=0;fillColor=#10739E;strokeColor=#ffffff;strokeWidth=2;verticalLabelPosition=bottom;verticalAlign=top;fontFamily=Helvetica;fontSize=26;fontColor=#000000;" parent="1" vertex="1"><mxGeometry x="1751" y="724" width="101" height="50" as="geometry"/></mxCell><mxCell id="eoMGSKBOUgeIE6Lk5qr4-2258" value="s2" style="shape=mxgraph.cisco.switches.workgroup_switch;html=1;dashed=0;fillColor=#10739E;strokeColor=#ffffff;strokeWidth=2;verticalLabelPosition=bottom;verticalAlign=top;fontFamily=Helvetica;fontSize=26;fontColor=#000000;" parent="1" vertex="1"><mxGeometry x="611" y="724" width="101" height="50" as="geometry"/></mxCell><mxCell id="eoMGSKBOUgeIE6Lk5qr4-2275" value="h1" style="shape=mxgraph.cisco.computers_and_peripherals.pc;sketch=0;html=1;pointerEvents=1;dashed=0;fillColor=#036897;strokeColor=#ffffff;strokeWidth=2;verticalLabelPosition=bottom;verticalAlign=top;align=center;outlineConnect=0;fontColor=#000000;fontSize=26;" parent="1" vertex="1"><mxGeometry x="221" y="714" width="78" height="70" as="geometry"/></mxCell><mxCell id="eoMGSKBOUgeIE6Lk5qr4-2276" value="a1" style="shape=mxgraph.cisco.computers_and_peripherals.pc;sketch=0;html=1;pointerEvents=1;dashed=0;fillColor=#B20000;strokeColor=#ffffff;strokeWidth=2;verticalLabelPosition=bottom;verticalAlign=top;align=center;outlineConnect=0;fontColor=#000000;fontSize=26;" parent="1" vertex="1"><mxGeometry x="221" y="834" width="78" height="70" as="geometry"/></mxCell><mxCell id="eoMGSKBOUgeIE6Lk5qr4-2281" value="h2" style="shape=mxgraph.cisco.computers_and_peripherals.pc;sketch=0;html=1;pointerEvents=1;dashed=0;fillColor=#036897;strokeColor=#ffffff;strokeWidth=2;verticalLabelPosition=bottom;verticalAlign=top;align=center;outlineConnect=0;fontColor=#000000;fontSize=26;" parent="1" vertex="1"><mxGeometry x="2161" y="714" width="78" height="70" as="geometry"/></mxCell><mxCell id="eoMGSKBOUgeIE6Lk5qr4-2282" value="a1" style="shape=mxgraph.cisco.computers_and_peripherals.pc;sketch=0;html=1;pointerEvents=1;dashed=0;fillColor=#B20000;strokeColor=#ffffff;strokeWidth=2;verticalLabelPosition=bottom;verticalAlign=top;align=center;outlineConnect=0;fontColor=#000000;fontSize=26;" parent="1" vertex="1"><mxGeometry x="2161" y="834" width="78" height="70" as="geometry"/></mxCell></root></mxGraphModel></diagram></mxfile>